<svg width="30" height="18" viewBox="0 0 30 18" fill="none" xmlns="http://www.w3.org/2000/svg">
<path d="M12.355 7.56216C12.8603 6.77565 13.1488 5.83734 13.1321 4.83134C13.0874 2.1393 10.847 0 8.15456 0H0.637556C0.285474 0 0 0.285474 0 0.637556V17.1684C0 17.5204 0.285474 17.8059 0.637556 17.8059H9.03436C12.1509 17.8059 14.7325 15.308 14.7452 12.1915C14.7531 10.2815 13.8059 8.58815 12.355 7.56216ZM3.29775 3.29775H8.21875C9.10994 3.29775 9.83506 4.0228 9.83506 4.91406C9.83506 5.80525 9.11001 6.53036 8.21875 6.53036H3.29775V3.29775ZM9.10759 14.5082H3.29775V9.82812H8.21875H9.10752C10.3978 9.82812 11.4475 10.8779 11.4475 12.1681C11.4475 13.4584 10.3979 14.5082 9.10759 14.5082Z" fill="#0067FF"/>
<path d="M29.1933 11.0193C29.1933 7.17006 26.1595 4.03857 22.4303 4.03857C18.7012 4.03857 15.6674 7.17013 15.6674 11.0193C15.6674 14.8684 18.7013 18 22.4303 18C24.6931 18 26.7957 16.8401 28.0547 14.897C28.2117 14.6548 28.3543 14.4017 28.4808 14.1408C28.5726 13.9514 28.4333 13.731 28.2228 13.7305L24.8984 13.7222C24.8248 13.722 24.7551 13.7521 24.7023 13.8033C24.0746 14.4137 23.305 14.7022 22.4303 14.7022C20.7782 14.7022 19.3932 13.4665 19.0485 11.8192H28.5314C28.897 11.8192 29.1933 11.5229 29.1933 11.1574V11.0193ZM22.4303 7.33633C23.6404 7.33633 24.7069 7.99942 25.3268 9.00122H19.5339C20.1538 7.99942 21.2204 7.33633 22.4303 7.33633Z" fill="#0067FF"/>
<path d="M25.2406 3.21913H19.2422C18.9624 3.21913 18.7355 2.99224 18.7355 2.71237V1.20756C18.7355 0.927695 18.9624 0.700806 19.2422 0.700806H25.2406C25.5205 0.700806 25.7474 0.927695 25.7474 1.20756V2.71237C25.7474 2.9923 25.5205 3.21913 25.2406 3.21913Z" fill="#0067FF"/>
</svg>
