<svg width="12" height="19" viewBox="0 0 12 19" fill="none" xmlns="http://www.w3.org/2000/svg">
<path fill-rule="evenodd" clip-rule="evenodd" d="M8.07217 0C5.23075 0 2.92733 2.30342 2.92733 5.14484V6.85979H1.21238C0.738808 6.85979 0.354904 7.2437 0.354904 7.71727V11.1472C0.354904 11.6207 0.738808 12.0046 1.21238 12.0046H2.92733V18.007C2.92733 18.4805 3.31123 18.8644 3.7848 18.8644H7.2147C7.68827 18.8644 8.07217 18.4805 8.07217 18.007V12.0046H9.78712C10.1806 12.0046 10.5236 11.7368 10.619 11.3551L11.4765 7.92523C11.6118 7.38404 11.2024 6.85979 10.6446 6.85979H8.07217V5.14484H10.6446C11.1182 5.14484 11.5021 4.76094 11.5021 4.28737V0.857474C11.5021 0.383904 11.1182 0 10.6446 0H8.07217ZM8.07216 1.71495H9.78711V3.4299H8.07216C7.12502 3.4299 6.35721 4.19771 6.35721 5.14485V7.71727C6.35721 8.19084 6.74112 8.57475 7.21469 8.57475H9.54635L9.11761 10.2897H7.21469C6.74112 10.2897 6.35721 10.6736 6.35721 11.1472V17.1495H4.64226V11.1472C4.64226 10.6736 4.25836 10.2897 3.78479 10.2897H2.06984V8.57475H3.78479C4.25836 8.57475 4.64226 8.19084 4.64226 7.71727V5.14485C4.64226 3.25057 6.17788 1.71495 8.07216 1.71495Z" fill="#19202C"/>
<mask id="mask0_16_2" style="mask-type:luminance" maskUnits="userSpaceOnUse" x="0" y="0" width="12" height="19">
<path fill-rule="evenodd" clip-rule="evenodd" d="M8.07217 0C5.23075 0 2.92733 2.30342 2.92733 5.14484V6.85979H1.21238C0.738808 6.85979 0.354904 7.2437 0.354904 7.71727V11.1472C0.354904 11.6207 0.738808 12.0046 1.21238 12.0046H2.92733V18.007C2.92733 18.4805 3.31123 18.8644 3.7848 18.8644H7.2147C7.68827 18.8644 8.07217 18.4805 8.07217 18.007V12.0046H9.78712C10.1806 12.0046 10.5236 11.7368 10.619 11.3551L11.4765 7.92523C11.6118 7.38404 11.2024 6.85979 10.6446 6.85979H8.07217V5.14484H10.6446C11.1182 5.14484 11.5021 4.76094 11.5021 4.28737V0.857474C11.5021 0.383904 11.1182 0 10.6446 0H8.07217ZM8.07216 1.71495H9.78711V3.4299H8.07216C7.12502 3.4299 6.35721 4.19771 6.35721 5.14485V7.71727C6.35721 8.19084 6.74112 8.57475 7.21469 8.57475H9.54635L9.11761 10.2897H7.21469C6.74112 10.2897 6.35721 10.6736 6.35721 11.1472V17.1495H4.64226V11.1472C4.64226 10.6736 4.25836 10.2897 3.78479 10.2897H2.06984V8.57475H3.78479C4.25836 8.57475 4.64226 8.19084 4.64226 7.71727V5.14485C4.64226 3.25057 6.17788 1.71495 8.07216 1.71495Z" fill="white"/>
</mask>
<g mask="url(#mask0_16_2)">
</g>
</svg>
