<svg width="19" height="20" viewBox="0 0 19 20" fill="none" xmlns="http://www.w3.org/2000/svg">
<path fill-rule="evenodd" clip-rule="evenodd" d="M0.067543 5.44436C0.067543 2.60508 2.3689 0.303589 5.20832 0.303589H13.7912C16.6305 0.303589 18.932 2.60495 18.932 5.44436V14.0272C18.932 16.8665 16.6306 19.168 13.7912 19.168H5.20832C2.36903 19.168 0.067543 16.8667 0.067543 14.0272V5.44436ZM1.78248 5.44437V14.0273C1.78248 15.9195 3.31614 17.4531 5.2083 17.4531H13.7912C15.6834 17.4531 17.217 15.9194 17.217 14.0273V5.44437C17.217 3.55212 15.6833 2.01855 13.7912 2.01855H5.2083C3.31605 2.01855 1.78248 3.55221 1.78248 5.44437ZM9.91418 7.15412C11.0351 7.32033 11.9152 8.20046 12.0814 9.32138C12.2442 10.4191 11.6847 11.4976 10.6934 11.9965C9.7021 12.4954 8.5026 12.3024 7.71787 11.5177C6.93315 10.733 6.74013 9.53346 7.23907 8.54218C7.73801 7.5509 8.81642 6.99133 9.91418 7.15412ZM13.7778 9.06982C14.0491 10.8994 13.1165 12.6968 11.4644 13.5283C9.81227 14.3599 7.81309 14.0382 6.50522 12.7303C5.19734 11.4225 4.87565 9.42328 5.70722 7.77115C6.53878 6.11901 8.33613 5.1864 10.1657 5.45771C12.0339 5.73474 13.5008 7.20162 13.7778 9.06982ZM14.6446 4.59096C14.6446 5.06453 14.2607 5.44844 13.7871 5.44844C13.3136 5.44844 12.9296 5.06453 12.9296 4.59096C12.9296 4.11739 13.3136 3.73349 13.7871 3.73349C14.2607 3.73349 14.6446 4.11739 14.6446 4.59096Z" fill="#19202C"/>
</svg>
