<svg width="19" height="17" viewBox="0 0 19 17" fill="none" xmlns="http://www.w3.org/2000/svg">
<path fill-rule="evenodd" clip-rule="evenodd" d="M18.9755 1.72514C19.1485 0.992846 18.3478 0.431121 17.7502 0.86556C17.1895 1.27317 16.5798 1.60271 15.937 1.84621C14.7393 0.74154 13.0282 0.40044 11.4987 1.00207C9.8074 1.66735 8.69586 3.34462 8.70802 5.20815C6.43896 5.03269 4.34696 3.82065 3.02387 1.87905C2.67031 1.3602 1.90269 1.43718 1.65284 2.01655C1.54972 2.25565 1.40459 2.6633 1.2618 3.20432C0.78975 4.99286 0.707159 6.8761 1.27299 8.66817C1.82101 10.4038 2.93812 11.871 4.68273 12.9793C3.48104 13.5497 2.15953 13.8232 0.824561 13.7685C-0.00842085 13.7343 -0.320024 14.8794 0.408709 15.2966C8.35518 19.8463 17.4149 14.8768 17.4149 5.20285C17.4145 5.06909 17.4084 4.9361 17.3966 4.80397C18.1609 3.93001 18.7043 2.87248 18.9755 1.72514ZM15.1238 3.31547C15.3281 3.55757 15.6512 3.65375 15.9493 3.56124C16.1326 3.50434 16.314 3.44175 16.4933 3.3736C16.3439 3.5748 16.1806 3.7658 16.0043 3.945C15.8162 4.13619 15.733 4.4115 15.7826 4.67895C15.8148 4.85253 15.8313 5.02881 15.8319 5.20553C15.8319 12.5004 9.98349 16.6587 3.90533 15.0108C4.92189 14.7117 5.89245 14.2467 6.77823 13.627C7.29191 13.2677 7.22249 12.4666 6.65516 12.2067C4.54093 11.2383 3.3142 9.86054 2.77832 8.16335C2.3604 6.83975 2.38327 5.40542 2.69594 4.01455C4.4736 5.8804 6.93935 6.92743 9.52027 6.85846C9.94928 6.847 10.2913 6.48529 10.2913 6.04302V5.22731C10.2757 4.02533 10.9834 2.951 12.0632 2.52625C13.143 2.1015 14.3653 2.41668 15.1238 3.31547Z" fill="#19202C"/>
</svg>
